# xmcd
#
# Track frame offsets:
#	150
#	22669
#	36410
#	47476
#	81324
#	103329
#	120268
#	141154
#	158215
#	180153
#	199663
#	215728
#	228516
#	241428
#	255542
#
# Disc length: 3707 seconds
#
# Revision: 3
# Processed by: cddbd v1.5.2PL0 Copyright (c) Steve Scherf et al.
# Submitted via: audiograbber 1.83.01
#
DISCID=c50e790f
DTITLE=Sabastiao Tapajos - SantaRio
DYEAR=1999
DGENRE=Guitar
TTITLE0=Coboclo
TTITLE1=Assum Preto
TTITLE2=Taiacupeba
TTITLE3=Lendas Amazonicas
TTITLE4=Tico Tico no fuba
TTITLE5=Maricarro
TTITLE6=Lamento no morro
TTITLE7=Estacao Barueri
TTITLE8=Lamento
TTITLE9=Igapo
TTITLE10=Preludio do Entardecer
TTITLE11=1xo (Um a zero)
TTITLE12=Tucuma
TTITLE13=Vitoria Regia
TTITLE14=Matinta
EXTD=
EXTT0=
EXTT1=
EXTT2=
EXTT3=
EXTT4=
EXTT5=
EXTT6=
EXTT7=
EXTT8=
EXTT9=
EXTT10=
EXTT11=
EXTT12=
EXTT13=
EXTT14=
PLAYORDER=
